<svg width="891" height="209" xmlns="http://www.w3.org/2000/svg">
    <g fill-rule="nonzero" fill="currentColor">
        <path d="M54.688 208.375c15.104 0 27.994-5.339 38.671-16.016 10.677-10.677 16.016-23.567 16.016-38.672V59.743c0-2.148-.765-3.987-2.295-5.517-1.53-1.53-3.37-2.295-5.517-2.295-2.149 0-3.988.765-5.518 2.295-1.53 1.53-2.295 3.369-2.295 5.517v55.664l-.39-.39C82.681 104.339 69.791 99 54.687 99c-15.105 0-27.995 5.339-38.672 16.016C5.339 125.693 0 138.583 0 153.687c0 15.105 5.339 27.995 16.016 38.672 10.677 10.677 23.567 16.016 38.672 16.016zm0-15.625c-10.808 0-20.02-3.809-27.637-11.426-7.617-7.617-11.426-16.83-11.426-27.637 0-10.807 3.809-20.019 11.426-27.636 7.617-7.617 16.83-11.426 27.637-11.426 10.807 0 20.019 3.809 27.636 11.426 7.617 7.617 11.426 16.83 11.426 27.636 0 10.808-3.809 20.02-11.426 27.637-7.617 7.617-16.83 11.426-27.636 11.426z"/>
        <path d="M101.156 130.375c2.149 0 3.988-.765 5.518-2.295 1.53-1.53 2.295-3.37 2.295-5.517V51.78c0-13.997-4.964-25.96-14.893-35.888C84.148 5.964 72.185 1 58.188 1 44.516 1 32.797 5.72 23.03 15.16V8.813c0-2.149-.765-3.988-2.295-5.518C19.206 1.765 17.367 1 15.22 1 13.07 1 11.23 1.765 9.7 3.295c-1.53 1.53-2.295 3.37-2.295 5.518v75.75c0 2.148.765 3.987 2.295 5.517 1.53 1.53 3.37 2.295 5.518 2.295 2.148 0 3.987-.765 5.517-2.295 1.53-1.53 2.295-3.37 2.295-5.517V51.78c0-9.7 3.434-17.985 10.303-24.853 6.868-6.869 15.153-10.303 24.853-10.303 9.701 0 17.986 3.434 24.854 10.303C89.91 33.796 93.344 42.08 93.344 51.78v70.782c0 2.148.765 3.987 2.295 5.517 1.53 1.53 3.369 2.295 5.517 2.295z"/>
        <path d="M187.156 92.375c2.149 0 3.988-.765 5.518-2.295 1.53-1.53 2.295-3.37 2.295-5.517V8.813c0-2.149-.765-3.988-2.295-5.518-1.53-1.53-3.37-2.295-5.518-2.295-2.148 0-3.987.765-5.517 2.295-1.53 1.53-2.295 3.37-2.295 5.518v32.78c0 9.701-3.434 17.986-10.303 24.854-6.868 6.869-15.153 10.303-24.853 10.303-9.701 0-17.986-3.434-24.854-10.303-6.869-6.868-11.147-15.371-11.147-25.072l.844.219H93.406c0 13.997 4.964 25.96 14.893 35.888 9.928 9.929 21.891 14.893 35.888 14.893 13.672 0 25.391-4.72 35.157-14.16v6.347c0 2.149.765 3.988 2.295 5.518 1.53 1.53 3.369 2.295 5.517 2.295zM149.688 208.375c13.671 0 25.553-4.395 35.644-13.184 1.497-1.562 2.246-3.418 2.246-5.566 0-2.148-.765-3.988-2.295-5.518-1.53-1.53-3.369-2.294-5.517-2.294-1.823 0-3.45.553-4.883 1.66-7.031 6.185-15.43 9.277-25.196 9.277-10.807 0-20.019-3.809-27.636-11.426-5.73-5.729-9.31-12.337-10.742-19.824h85.254c2.148 0 3.987-.765 5.517-2.295 1.53-1.53 2.295-3.37 2.295-5.518 0-15.104-5.339-27.994-16.016-38.671C177.682 104.339 164.792 99 149.687 99c-15.104 0-27.994 5.339-38.671 16.016C100.339 125.693 95 138.583 95 153.687c0 15.105 5.339 27.995 16.016 38.672 10.677 10.677 23.567 16.016 38.671 16.016zm38.378-62.5H111.31c1.432-7.487 5.013-14.095 10.742-19.824 7.617-7.617 16.83-11.426 27.636-11.426 10.808 0 20.02 3.809 27.637 11.426 5.73 5.729 9.31 12.337 10.742 19.824zM233.875 55c4.808 0 8.978-1.55 12.51-4.648.683-.707 1.025-1.561 1.025-2.564 0-1.025-.336-1.874-1.008-2.546-.672-.673-1.521-1.009-2.547-1.009a3.735 3.735 0 0 0-2.358.89 11.328 11.328 0 0 1-3.486 2.05c-1.254.456-2.632.683-4.136.683a11.87 11.87 0 0 1-3.811-.615 12.282 12.282 0 0 1-3.35-1.726 12.003 12.003 0 0 1-2.649-2.666 11.683 11.683 0 0 1-1.709-3.435h27.07c1.003 0 1.852-.336 2.547-1.008.695-.672 1.043-1.521 1.043-2.547 0-2.643-.467-5.098-1.402-7.365-.934-2.268-2.335-4.324-4.204-6.17-3.782-3.737-8.294-5.605-13.535-5.605-5.286 0-9.798 1.868-13.535 5.605s-5.606 8.249-5.606 13.535c0 5.287 1.869 9.799 5.606 13.536S228.589 55 233.875 55zm11.519-22.695h-23.038a11.07 11.07 0 0 1 1.675-3.435 11.839 11.839 0 0 1 2.666-2.666 12.484 12.484 0 0 1 3.384-1.726 11.92 11.92 0 0 1 3.794-.616c1.299 0 2.558.205 3.777.616 1.219.41 2.335.985 3.35 1.726 1.013.74 1.902 1.629 2.665 2.666a11.454 11.454 0 0 1 1.727 3.435zM266.893 55c.98 0 1.817-.347 2.512-1.042a3.424 3.424 0 0 0 1.042-2.513c0-1.002-.347-1.851-1.042-2.546a3.424 3.424 0 0 0-2.512-1.043h-1.641V3.901c0-1.002-.336-1.851-1.008-2.546-.673-.695-1.521-1.042-2.547-1.042-1.025 0-1.874.347-2.546 1.042-.672.695-1.008 1.544-1.008 2.546v47.544c0 .98.341 1.818 1.025 2.513.684.695 1.515 1.042 2.495 1.042h5.23zm27.138 0c4.808 0 8.978-1.55 12.51-4.648.684-.707 1.025-1.561 1.025-2.564 0-1.025-.336-1.874-1.008-2.546-.672-.673-1.52-1.009-2.546-1.009a3.735 3.735 0 0 0-2.359.89 11.328 11.328 0 0 1-3.486 2.05c-1.253.456-2.632.683-4.136.683a11.87 11.87 0 0 1-3.81-.615 12.282 12.282 0 0 1-3.35-1.726 12.003 12.003 0 0 1-2.65-2.666 11.683 11.683 0 0 1-1.708-3.435h27.07c1.003 0 1.851-.336 2.546-1.008.695-.672 1.043-1.521 1.043-2.547 0-2.643-.467-5.098-1.401-7.365-.935-2.268-2.336-4.324-4.205-6.17-3.782-3.737-8.294-5.605-13.535-5.605-5.286 0-9.798 1.868-13.535 5.605s-5.605 8.249-5.605 13.535c0 5.287 1.868 9.799 5.605 13.536S288.745 55 294.031 55zm11.519-22.695h-23.037a11.07 11.07 0 0 1 1.675-3.435 11.839 11.839 0 0 1 2.666-2.666 12.484 12.484 0 0 1 3.383-1.726 11.92 11.92 0 0 1 3.794-.616c1.3 0 2.558.205 3.777.616 1.22.41 2.336.985 3.35 1.726 1.014.74 1.902 1.629 2.666 2.666a11.454 11.454 0 0 1 1.726 3.435zM369.124 55c.98 0 1.817-.347 2.512-1.042.695-.695 1.043-1.544 1.043-2.547V31.963c0-2.074-.405-4.039-1.214-5.896-.809-1.857-1.902-3.475-3.28-4.854-1.38-1.378-2.997-2.472-4.854-3.28a14.605 14.605 0 0 0-5.896-1.214c-4.603 0-8.488 1.811-11.656 5.434-1.504-1.823-3.258-3.184-5.263-4.084-2.006-.9-4.148-1.35-6.426-1.35-3.1 0-5.868.809-8.306 2.427a3.347 3.347 0 0 0-1.264-1.76c-.616-.445-1.322-.667-2.12-.667-.98 0-1.817.347-2.512 1.042a3.424 3.424 0 0 0-1.042 2.512v31.138c0 1.003.347 1.852 1.042 2.547.695.695 1.544 1.042 2.547 1.042.98 0 1.817-.347 2.512-1.042.695-.695 1.042-1.544 1.042-2.547V31.963c0-1.117.211-2.165.633-3.145a8.191 8.191 0 0 1 4.323-4.323 7.871 7.871 0 0 1 3.145-.633c1.116 0 2.165.217 3.144.65a8.373 8.373 0 0 1 2.564 1.743c.729.729 1.31 1.584 1.743 2.563.433.98.65 2.028.65 3.145V51.41c0 1.003.347 1.852 1.042 2.547.695.695 1.544 1.042 2.546 1.042.98 0 1.818-.347 2.513-1.042.694-.695 1.042-1.544 1.042-2.547V31.963c0-1.117.21-2.165.632-3.145a7.99 7.99 0 0 1 1.743-2.563c.741-.73 1.601-1.31 2.581-1.743a7.693 7.693 0 0 1 3.145-.65c1.139 0 2.204.217 3.195.65a8.17 8.17 0 0 1 2.58 1.76c.73.74 1.305 1.6 1.727 2.58.422.98.632 2.017.632 3.11v19.45c0 1.002.342 1.85 1.026 2.546.683.695 1.526 1.042 2.529 1.042zm28.813 0c4.808 0 8.978-1.55 12.51-4.648.684-.707 1.026-1.561 1.026-2.564 0-1.025-.336-1.874-1.009-2.546-.672-.673-1.52-1.009-2.546-1.009a3.735 3.735 0 0 0-2.358.89 11.328 11.328 0 0 1-3.487 2.05c-1.253.456-2.632.683-4.135.683a11.87 11.87 0 0 1-3.812-.615 12.282 12.282 0 0 1-3.35-1.726 12.003 12.003 0 0 1-2.648-2.666 11.683 11.683 0 0 1-1.71-3.435h27.071c1.003 0 1.852-.336 2.547-1.008.695-.672 1.042-1.521 1.042-2.547 0-2.643-.467-5.098-1.401-7.365-.934-2.268-2.336-4.324-4.204-6.17-3.783-3.737-8.295-5.605-13.536-5.605-5.286 0-9.798 1.868-13.535 5.605s-5.605 8.249-5.605 13.535c0 5.287 1.868 9.799 5.605 13.536S392.651 55 397.938 55zm11.52-22.695h-23.038a11.07 11.07 0 0 1 1.675-3.435 11.839 11.839 0 0 1 2.666-2.666 12.484 12.484 0 0 1 3.384-1.726 11.92 11.92 0 0 1 3.793-.616c1.3 0 2.558.205 3.777.616 1.22.41 2.336.985 3.35 1.726 1.014.74 1.903 1.629 2.666 2.666a11.454 11.454 0 0 1 1.726 3.435zM454.641 55c.98 0 1.817-.347 2.512-1.042.695-.695 1.042-1.544 1.042-2.547v-16.85c0-2.461-.478-4.78-1.435-6.956-.957-2.176-2.256-4.067-3.897-5.674a18.689 18.689 0 0 0-5.69-3.81 16.95 16.95 0 0 0-6.82-1.402c-4.101 0-7.667 1.173-10.698 3.52 0-.934-.347-1.754-1.042-2.46-.695-.707-1.533-1.06-2.512-1.06-1.003 0-1.852.353-2.547 1.06-.695.706-1.042 1.549-1.042 2.529V51.41c0 1.003.347 1.852 1.042 2.547.695.695 1.544 1.042 2.547 1.042.98 0 1.817-.347 2.512-1.042.695-.695 1.042-1.544 1.042-2.547v-16.85c0-1.459.28-2.837.838-4.136a10.837 10.837 0 0 1 2.307-3.418c.98-.98 2.113-1.749 3.4-2.307 1.288-.559 2.672-.838 4.153-.838 1.459 0 2.837.285 4.136.855a11.017 11.017 0 0 1 3.401 2.307 11.017 11.017 0 0 1 2.307 3.4c.57 1.3.855 2.678.855 4.137v16.85c0 1.003.347 1.852 1.042 2.547.695.695 1.544 1.042 2.547 1.042zm27.856 0c.98 0 1.812-.347 2.495-1.042.684-.695 1.026-1.544 1.026-2.547 0-.98-.342-1.817-1.026-2.512-.683-.695-1.515-1.043-2.495-1.043-4.557 0-6.836-2.267-6.836-6.801V23.862h4.273c.98 0 1.811-.347 2.495-1.042.683-.695 1.025-1.544 1.025-2.547 0-.98-.342-1.817-1.025-2.512-.684-.695-1.516-1.042-2.495-1.042h-4.273V3.867c0-.98-.347-1.817-1.042-2.512a3.424 3.424 0 0 0-2.513-1.042c-1.002 0-1.851.347-2.546 1.042a3.424 3.424 0 0 0-1.042 2.512V16.72h-1.607c-.957 0-1.783.347-2.478 1.042a3.424 3.424 0 0 0-1.042 2.512c0 1.003.347 1.852 1.042 2.547.695.695 1.521 1.042 2.478 1.042h1.607v17.193c0 9.297 4.66 13.945 13.979 13.945zm43.135 0c.98 0 1.817-.347 2.512-1.042a3.424 3.424 0 0 0 1.043-2.513V35.86c0-5.286-1.869-9.798-5.606-13.535-3.783-3.737-8.294-5.605-13.535-5.605-5.287 0-9.798 1.868-13.535 5.605s-5.606 8.249-5.606 13.535c0 5.287 1.869 9.799 5.606 13.536S504.76 55 510.047 55c2.279 0 4.42-.365 6.426-1.094a19.586 19.586 0 0 0 5.57-3.144v.683c0 .98.348 1.818 1.043 2.513.695.695 1.544 1.042 2.547 1.042zm-15.586-7.144c-1.686 0-3.259-.319-4.717-.957a12.099 12.099 0 0 1-3.794-2.58 12.215 12.215 0 0 1-2.546-3.811 11.65 11.65 0 0 1-.94-4.649c0-1.64.313-3.19.94-4.648a12.215 12.215 0 0 1 2.546-3.811 12.099 12.099 0 0 1 3.794-2.58c1.458-.639 3.03-.958 4.717-.958 1.663 0 3.224.32 4.682.957a12.161 12.161 0 0 1 6.375 6.409c.627 1.447.94 2.99.94 4.631s-.313 3.185-.94 4.632a12.161 12.161 0 0 1-6.375 6.409c-1.458.637-3.019.956-4.682.956zM538.108 55c.98 0 1.818-.347 2.513-1.042a3.424 3.424 0 0 0 1.042-2.513V35.86c0-1.663.313-3.224.94-4.682a12.068 12.068 0 0 1 2.564-3.811 12.068 12.068 0 0 1 3.81-2.564c1.459-.626 3.02-.94 4.683-.94 1.686 0 3.247.285 4.683.855.57.25 1.07.376 1.504.376.501 0 .968-.091 1.401-.274a3.365 3.365 0 0 0 1.128-.769c.319-.33.575-.712.769-1.145.194-.433.29-.9.29-1.401 0-.98-.318-1.777-.956-2.393-.639-.615-1.442-1.1-2.41-1.452a14.116 14.116 0 0 0-3.179-.735 27.468 27.468 0 0 0-3.23-.205c-2.278 0-4.42.364-6.426 1.093a19.586 19.586 0 0 0-5.57 3.145v-.684c0-.98-.348-1.817-1.043-2.512a3.424 3.424 0 0 0-2.513-1.042c-1.002 0-1.851.347-2.546 1.042a3.424 3.424 0 0 0-1.042 2.512v31.172c0 .98.347 1.818 1.042 2.513.695.695 1.544 1.042 2.546 1.042zm38.965 16.406c.73 0 1.402-.222 2.017-.666a3.993 3.993 0 0 0 1.367-1.726L600.11 21.88c.251-.57.376-1.105.376-1.607a3.31 3.31 0 0 0-.29-1.367 3.964 3.964 0 0 0-.77-1.145 3.365 3.365 0 0 0-1.127-.769 3.574 3.574 0 0 0-1.402-.273c-.934 0-1.657.21-2.17.632-.513.422-.906.974-1.18 1.658l-9.604 23.003-9.604-22.935c-.32-.775-.786-1.361-1.402-1.76a3.578 3.578 0 0 0-1.982-.598c-.501 0-.968.09-1.401.273a3.365 3.365 0 0 0-1.128.77 3.7 3.7 0 0 0-.752 1.144 3.488 3.488 0 0 0-.274 1.367c0 .547.114 1.083.342 1.607l12.305 29.565-6.187 14.8a3.758 3.758 0 0 0-.341 1.572c0 1.026.336 1.88 1.008 2.564.672.683 1.52 1.025 2.546 1.025zM233.875 131c5.24 0 9.753-1.868 13.535-5.605 3.737-3.692 5.606-8.204 5.606-13.536V79.867c0-1.025-.348-1.874-1.043-2.546-.695-.672-1.544-1.008-2.546-1.008-1.026 0-1.874.336-2.547 1.008-.672.672-1.008 1.52-1.008 2.546v17.056c-3.463-2.803-7.462-4.204-11.997-4.204-5.286 0-9.798 1.868-13.535 5.605s-5.606 8.249-5.606 13.535c0 5.287 1.869 9.799 5.606 13.536S228.589 131 233.875 131zm0-7.144c-1.686 0-3.258-.319-4.717-.957a12.099 12.099 0 0 1-3.794-2.58 12.215 12.215 0 0 1-2.546-3.811 11.65 11.65 0 0 1-.94-4.649c0-1.64.313-3.19.94-4.648a12.215 12.215 0 0 1 2.546-3.811 12.099 12.099 0 0 1 3.794-2.58c1.459-.639 3.03-.958 4.717-.958 1.663 0 3.224.32 4.683.957a12.161 12.161 0 0 1 6.374 6.409c.627 1.447.94 2.99.94 4.631s-.313 3.185-.94 4.632a12.161 12.161 0 0 1-6.375 6.409c-1.458.637-3.019.956-4.682.956zm43.75 7.144c4.808 0 8.978-1.55 12.51-4.648.683-.707 1.025-1.561 1.025-2.564 0-1.025-.336-1.874-1.008-2.546-.672-.673-1.521-1.009-2.547-1.009a3.735 3.735 0 0 0-2.358.89 11.328 11.328 0 0 1-3.486 2.05c-1.254.456-2.632.683-4.136.683a11.87 11.87 0 0 1-3.811-.615 12.282 12.282 0 0 1-3.35-1.726 12.003 12.003 0 0 1-2.649-2.666 11.683 11.683 0 0 1-1.709-3.435h27.07c1.003 0 1.852-.336 2.547-1.008.695-.672 1.043-1.521 1.043-2.547 0-2.643-.467-5.098-1.402-7.365-.934-2.268-2.335-4.324-4.204-6.17-3.782-3.737-8.294-5.605-13.535-5.605-5.286 0-9.798 1.868-13.535 5.605s-5.606 8.249-5.606 13.535c0 5.287 1.869 9.799 5.606 13.536S272.339 131 277.625 131zm11.519-22.695h-23.038a11.07 11.07 0 0 1 1.675-3.435 11.839 11.839 0 0 1 2.666-2.666 12.484 12.484 0 0 1 3.384-1.726 11.92 11.92 0 0 1 3.794-.616c1.299 0 2.558.205 3.777.616 1.219.41 2.335.985 3.35 1.726 1.013.74 1.902 1.629 2.665 2.666a11.454 11.454 0 0 1 1.727 3.435zM317.718 131c1.868 0 3.725-.262 5.571-.786 1.846-.524 3.51-1.282 4.99-2.273 1.481-.991 2.683-2.182 3.606-3.572.923-1.39 1.385-2.962 1.385-4.717 0-2.37-.866-4.432-2.598-6.186h.034c-.775-.82-2.279-1.664-4.512-2.53l-15.996-5.263c-.592-.228-.888-.661-.888-1.299 0-.638.182-1.14.546-1.504 1.96-2.005 4.58-3.008 7.862-3.008 3.327 0 6.152 1.162 8.476 3.487.479.478.974.922 1.487 1.333.513.41 1.134.615 1.863.615 1.025 0 1.874-.336 2.546-1.008.673-.673 1.009-1.521 1.009-2.547 0-.843-.24-1.56-.718-2.153-4.079-4.58-8.967-6.87-14.663-6.87-1.869 0-3.732.267-5.589.803-1.857.535-3.526 1.293-5.007 2.273-1.481.98-2.683 2.17-3.606 3.572-.923 1.401-1.384 2.968-1.384 4.7 0 2.37.866 4.431 2.597 6.186h-.034c.866.866 2.37 1.709 4.512 2.53l15.962 5.263c.615.25.923.695.923 1.333 0 .547-.171 1.014-.513 1.401-1.982 2.051-4.603 3.076-7.861 3.076-3.35 0-6.187-1.162-8.511-3.486-.433-.41-.911-.837-1.436-1.282-.524-.444-1.162-.666-1.914-.666-1.025 0-1.874.336-2.546 1.008-.672.672-1.008 1.521-1.008 2.547 0 .82.25 1.56.752 2.221 4.033 4.535 8.92 6.802 14.663 6.802zm26.216-40.879c1.162 0 2.153-.41 2.973-1.23.82-.82 1.23-1.812 1.23-2.974 0-1.162-.41-2.153-1.23-2.974-.82-.82-1.811-1.23-2.973-1.23-1.163 0-2.154.41-2.974 1.23-.82.82-1.23 1.812-1.23 2.974 0 1.162.41 2.153 1.23 2.974.82.82 1.811 1.23 2.974 1.23zm0 40.879c.98 0 1.817-.347 2.512-1.042.695-.695 1.054-1.544 1.076-2.547V96.308c-.022-1.003-.381-1.852-1.076-2.547a3.424 3.424 0 0 0-2.512-1.042c-.98 0-1.818.347-2.513 1.042-.695.695-1.042 1.544-1.042 2.547v31.103c0 1.003.347 1.852 1.042 2.547a3.424 3.424 0 0 0 2.513 1.042zm30.351 16.406c1.527 0 3.054-.182 4.58-.547a21.87 21.87 0 0 0 4.392-1.555 19.743 19.743 0 0 0 3.914-2.478 17.554 17.554 0 0 0 3.144-3.298 15.117 15.117 0 0 0 2.085-4.016c.502-1.459.752-3.008.752-4.649V111.86c0-5.286-1.868-9.798-5.605-13.535-3.783-3.737-8.294-5.605-13.535-5.605-5.287 0-9.798 1.868-13.535 5.605s-5.606 8.249-5.606 13.535c0 5.287 1.869 9.799 5.606 13.536S368.725 131 374.012 131c4.58 0 8.579-1.401 11.997-4.204v4.067c0 1.8-.786 3.658-2.359 5.572-2.552 2.552-5.673 3.828-9.365 3.828-3.668 0-6.802-1.3-9.4-3.897-.592-.57-1.275-1.401-2.05-2.495-.775-1.094-1.384-1.8-1.829-2.119-.444-.32-1.008-.479-1.692-.479-1.025 0-1.88.337-2.563 1.009-.684.672-1.025 1.52-1.025 2.546 0 .752.182 1.39.546 1.914a20.647 20.647 0 0 0 3.333 4.512 20.092 20.092 0 0 0 4.324 3.384c1.572.911 3.235 1.6 4.99 2.068 1.755.467 3.543.7 5.366.7zm-.273-23.55c-1.686 0-3.259-.319-4.717-.957a12.099 12.099 0 0 1-3.794-2.58 12.215 12.215 0 0 1-2.546-3.811 11.65 11.65 0 0 1-.94-4.649c0-1.64.313-3.19.94-4.648a12.215 12.215 0 0 1 2.546-3.811 12.099 12.099 0 0 1 3.794-2.58c1.458-.639 3.03-.958 4.717-.958 1.663 0 3.224.32 4.682.957a12.161 12.161 0 0 1 6.375 6.409c.626 1.447.94 2.99.94 4.631s-.314 3.185-.94 4.632a12.161 12.161 0 0 1-6.375 6.409c-1.458.637-3.019.956-4.682.956zM430.716 131c.98 0 1.817-.347 2.512-1.042.695-.695 1.043-1.544 1.043-2.547v-16.85c0-2.461-.479-4.78-1.436-6.956s-2.256-4.067-3.897-5.674a18.689 18.689 0 0 0-5.69-3.81 16.95 16.95 0 0 0-6.82-1.402c-4.1 0-7.667 1.173-10.698 3.52 0-.934-.347-1.754-1.042-2.46-.695-.707-1.532-1.06-2.512-1.06-1.003 0-1.852.353-2.547 1.06-.695.706-1.042 1.549-1.042 2.529v31.103c0 1.003.347 1.852 1.042 2.547.695.695 1.544 1.042 2.547 1.042.98 0 1.817-.347 2.512-1.042.695-.695 1.042-1.544 1.042-2.547v-16.85c0-1.459.28-2.837.838-4.136a10.837 10.837 0 0 1 2.307-3.418c.98-.98 2.113-1.749 3.4-2.307 1.288-.559 2.673-.838 4.154-.838 1.458 0 2.837.285 4.135.855a11.017 11.017 0 0 1 3.401 2.307 11.017 11.017 0 0 1 2.307 3.4c.57 1.3.855 2.678.855 4.137v16.85c0 1.003.347 1.852 1.042 2.547.695.695 1.544 1.042 2.547 1.042zm43.545 0c1.868 0 3.725-.262 5.571-.786 1.846-.524 3.51-1.282 4.99-2.273 1.481-.991 2.683-2.182 3.606-3.572.923-1.39 1.385-2.962 1.385-4.717 0-2.37-.866-4.432-2.598-6.186h.034c-.775-.82-2.279-1.664-4.512-2.53l-15.996-5.263c-.592-.228-.888-.661-.888-1.299 0-.638.182-1.14.546-1.504 1.96-2.005 4.58-3.008 7.862-3.008 3.327 0 6.152 1.162 8.476 3.487.479.478.974.922 1.487 1.333.513.41 1.134.615 1.863.615 1.025 0 1.874-.336 2.546-1.008.673-.673 1.009-1.521 1.009-2.547 0-.843-.24-1.56-.718-2.153-4.079-4.58-8.967-6.87-14.663-6.87-1.869 0-3.732.267-5.589.803-1.857.535-3.526 1.293-5.007 2.273-1.481.98-2.683 2.17-3.606 3.572-.923 1.401-1.384 2.968-1.384 4.7 0 2.37.866 4.431 2.597 6.186h-.034c.866.866 2.37 1.709 4.512 2.53l15.962 5.263c.615.25.923.695.923 1.333 0 .547-.171 1.014-.513 1.401-1.982 2.051-4.603 3.076-7.861 3.076-3.35 0-6.187-1.162-8.511-3.486-.433-.41-.911-.837-1.436-1.282-.524-.444-1.162-.666-1.914-.666-1.025 0-1.874.336-2.546 1.008-.672.672-1.008 1.521-1.008 2.547 0 .82.25 1.56.752 2.221 4.033 4.535 8.92 6.802 14.663 6.802zm30.351 16.406c.73 0 1.402-.222 2.017-.666a3.993 3.993 0 0 0 1.367-1.726L527.65 97.88c.251-.57.376-1.105.376-1.607a3.31 3.31 0 0 0-.29-1.367 3.964 3.964 0 0 0-.77-1.145 3.365 3.365 0 0 0-1.127-.769 3.574 3.574 0 0 0-1.401-.273c-.935 0-1.658.21-2.17.632-.514.422-.907.974-1.18 1.658l-9.605 23.003-9.604-22.935c-.32-.775-.786-1.361-1.401-1.76a3.578 3.578 0 0 0-1.983-.598c-.501 0-.968.09-1.401.273a3.365 3.365 0 0 0-1.128.77 3.7 3.7 0 0 0-.752 1.144 3.488 3.488 0 0 0-.274 1.367c0 .547.114 1.083.342 1.607l12.305 29.565-6.187 14.8a3.758 3.758 0 0 0-.341 1.572c0 1.026.336 1.88 1.008 2.564.672.683 1.52 1.025 2.546 1.025zM548.772 131c1.869 0 3.726-.262 5.572-.786 1.845-.524 3.509-1.282 4.99-2.273 1.481-.991 2.683-2.182 3.606-3.572.923-1.39 1.384-2.962 1.384-4.717 0-2.37-.866-4.432-2.597-6.186h.034c-.775-.82-2.279-1.664-4.512-2.53l-15.996-5.263c-.593-.228-.889-.661-.889-1.299 0-.638.183-1.14.547-1.504 1.96-2.005 4.58-3.008 7.861-3.008 3.327 0 6.153 1.162 8.477 3.487.479.478.974.922 1.487 1.333.513.41 1.133.615 1.863.615 1.025 0 1.874-.336 2.546-1.008.672-.673 1.008-1.521 1.008-2.547 0-.843-.239-1.56-.717-2.153-4.08-4.58-8.967-6.87-14.664-6.87-1.868 0-3.73.267-5.588.803-1.857.535-3.526 1.293-5.007 2.273-1.481.98-2.683 2.17-3.606 3.572-.923 1.401-1.384 2.968-1.384 4.7 0 2.37.865 4.431 2.597 6.186h-.034c.866.866 2.37 1.709 4.512 2.53l15.962 5.263c.615.25.922.695.922 1.333 0 .547-.17 1.014-.512 1.401-1.983 2.051-4.603 3.076-7.862 3.076-3.35 0-6.186-1.162-8.51-3.486-.433-.41-.912-.837-1.436-1.282-.524-.444-1.162-.666-1.914-.666-1.025 0-1.874.336-2.546 1.008-.672.672-1.009 1.521-1.009 2.547 0 .82.251 1.56.752 2.221 4.034 4.535 8.921 6.802 14.663 6.802zm39.683 0c.98 0 1.812-.347 2.495-1.042.684-.695 1.026-1.544 1.026-2.547 0-.98-.342-1.817-1.026-2.512-.683-.695-1.515-1.043-2.495-1.043-4.557 0-6.836-2.267-6.836-6.801V99.862h4.273c.98 0 1.811-.347 2.495-1.042.683-.695 1.025-1.544 1.025-2.547 0-.98-.342-1.817-1.025-2.512-.684-.695-1.516-1.042-2.495-1.042h-4.273V79.867c0-.98-.347-1.817-1.042-2.512a3.424 3.424 0 0 0-2.513-1.043c-1.002 0-1.85.348-2.546 1.043a3.424 3.424 0 0 0-1.042 2.512V92.72h-1.607c-.957 0-1.783.347-2.478 1.042a3.424 3.424 0 0 0-1.042 2.512c0 1.003.347 1.852 1.042 2.547.695.695 1.521 1.042 2.478 1.042h1.607v17.193c0 9.297 4.66 13.945 13.98 13.945zm27.549 0c4.808 0 8.978-1.55 12.51-4.648.683-.707 1.025-1.561 1.025-2.564 0-1.025-.336-1.874-1.008-2.546-.672-.673-1.521-1.009-2.547-1.009a3.735 3.735 0 0 0-2.358.89 11.328 11.328 0 0 1-3.486 2.05c-1.254.456-2.632.683-4.136.683a11.87 11.87 0 0 1-3.811-.615 12.282 12.282 0 0 1-3.35-1.726 12.003 12.003 0 0 1-2.649-2.666 11.683 11.683 0 0 1-1.709-3.435h27.07c1.003 0 1.852-.336 2.547-1.008.695-.672 1.043-1.521 1.043-2.547 0-2.643-.468-5.098-1.402-7.365-.934-2.268-2.335-4.324-4.204-6.17-3.782-3.737-8.294-5.605-13.535-5.605-5.287 0-9.798 1.868-13.535 5.605s-5.606 8.249-5.606 13.535c0 5.287 1.869 9.799 5.606 13.536S610.717 131 616.004 131zm11.518-22.695h-23.037a11.07 11.07 0 0 1 1.675-3.435 11.839 11.839 0 0 1 2.666-2.666 12.484 12.484 0 0 1 3.384-1.726 11.92 11.92 0 0 1 3.794-.616c1.299 0 2.558.205 3.777.616 1.219.41 2.335.985 3.35 1.726 1.013.74 1.902 1.629 2.665 2.666a11.454 11.454 0 0 1 1.726 3.435zM691.097 131c.98 0 1.817-.347 2.512-1.042.695-.695 1.042-1.544 1.042-2.547v-19.448c0-2.074-.404-4.039-1.213-5.896-.809-1.857-1.903-3.475-3.281-4.854-1.379-1.378-2.997-2.472-4.854-3.28a14.605 14.605 0 0 0-5.896-1.214c-4.603 0-8.488 1.811-11.655 5.434-1.504-1.823-3.259-3.184-5.264-4.084-2.005-.9-4.147-1.35-6.426-1.35-3.098 0-5.867.809-8.305 2.427a3.347 3.347 0 0 0-1.265-1.76c-.615-.445-1.321-.667-2.119-.667-.98 0-1.817.347-2.512 1.042a3.424 3.424 0 0 0-1.043 2.512v31.138c0 1.003.348 1.852 1.043 2.547.695.695 1.544 1.042 2.546 1.042.98 0 1.817-.347 2.512-1.042.695-.695 1.043-1.544 1.043-2.547v-19.448c0-1.117.21-2.165.632-3.145a8.191 8.191 0 0 1 4.324-4.323 7.871 7.871 0 0 1 3.144-.633c1.117 0 2.165.217 3.145.65a8.373 8.373 0 0 1 2.564 1.743c.729.729 1.31 1.584 1.743 2.563.433.98.65 2.028.65 3.145v19.448c0 1.003.347 1.852 1.042 2.547.695.695 1.543 1.042 2.546 1.042.98 0 1.817-.347 2.512-1.042.695-.695 1.043-1.544 1.043-2.547v-19.448c0-1.117.21-2.165.632-3.145a7.99 7.99 0 0 1 1.743-2.563c.74-.73 1.6-1.31 2.58-1.743a7.693 7.693 0 0 1 3.145-.65c1.14 0 2.205.217 3.196.65a8.17 8.17 0 0 1 2.58 1.76c.73.74 1.305 1.6 1.727 2.58.421.98.632 2.017.632 3.11v19.45c0 1.002.342 1.85 1.025 2.546.684.695 1.527 1.042 2.53 1.042zm-468.125 76c.501 0 .968-.091 1.401-.273a3.365 3.365 0 0 0 1.128-.77 3.7 3.7 0 0 0 .752-1.144c.182-.433.273-.89.273-1.368v-25.634h6.87c.98 0 1.818-.348 2.513-1.043.695-.695 1.042-1.544 1.042-2.546 0-.98-.347-1.818-1.042-2.513a3.424 3.424 0 0 0-2.513-1.042h-6.87v-1.777c0-6.267 3.145-9.4 9.434-9.4.98 0 1.817-.347 2.512-1.042.695-.695 1.043-1.544 1.043-2.547 0-.98-.348-1.817-1.043-2.512a3.424 3.424 0 0 0-2.512-1.042c-11.029 0-16.543 5.514-16.543 16.543v1.777h-1.64c-1.026 0-1.875.336-2.547 1.008-.672.672-1.008 1.521-1.008 2.547 0 1.025.336 1.88 1.008 2.563.672.684 1.521 1.026 2.546 1.026h1.641v25.634c0 .479.091.935.273 1.368a3.7 3.7 0 0 0 .752 1.145c.32.33.695.586 1.128.769.433.182.9.273 1.402.273zm38.247 0c5.24 0 9.752-1.868 13.535-5.605 3.737-3.692 5.605-8.204 5.605-13.536-.022-2.643-.495-5.092-1.418-7.348-.923-2.256-2.319-4.318-4.187-6.187-3.783-3.737-8.294-5.605-13.535-5.605-5.287 0-9.798 1.868-13.535 5.605s-5.606 8.249-5.606 13.535c0 5.287 1.869 9.799 5.606 13.536S255.932 207 261.219 207zm0-7.144c-1.686 0-3.259-.319-4.717-.957a12.099 12.099 0 0 1-3.794-2.58 12.215 12.215 0 0 1-2.546-3.811 11.65 11.65 0 0 1-.94-4.649c0-1.64.313-3.19.94-4.648a12.215 12.215 0 0 1 2.546-3.811 12.099 12.099 0 0 1 3.794-2.58c1.458-.639 3.03-.958 4.717-.958 1.663 0 3.224.32 4.682.957a12.161 12.161 0 0 1 6.375 6.409c.627 1.447.94 2.99.94 4.631s-.313 3.185-.94 4.632a12.161 12.161 0 0 1-6.375 6.409c-1.458.637-3.019.956-4.682.956zM289.28 207c.98 0 1.817-.347 2.512-1.042a3.424 3.424 0 0 0 1.043-2.513V187.86c0-1.663.313-3.224.94-4.682a12.068 12.068 0 0 1 2.563-3.811 12.068 12.068 0 0 1 3.811-2.564c1.459-.626 3.02-.94 4.683-.94 1.686 0 3.247.285 4.683.855.57.25 1.07.376 1.504.376.5 0 .968-.091 1.4-.274a3.365 3.365 0 0 0 1.129-.769c.319-.33.575-.712.769-1.145.194-.433.29-.9.29-1.401 0-.98-.319-1.777-.957-2.393-.638-.615-1.44-1.1-2.41-1.452a14.116 14.116 0 0 0-3.178-.735 27.468 27.468 0 0 0-3.23-.205c-2.279 0-4.42.364-6.426 1.094a19.586 19.586 0 0 0-5.571 3.144v-.684c0-.98-.348-1.817-1.043-2.512a3.424 3.424 0 0 0-2.512-1.042c-1.002 0-1.851.347-2.546 1.042a3.424 3.424 0 0 0-1.043 2.512v31.172c0 .98.348 1.818 1.043 2.513.695.695 1.544 1.042 2.546 1.042zm67.437 0c.98 0 1.811-.347 2.495-1.042.684-.695 1.025-1.544 1.025-2.547 0-.98-.341-1.817-1.025-2.512-.684-.695-1.515-1.043-2.495-1.043-4.557 0-6.836-2.267-6.836-6.801v-17.193h4.272c.98 0 1.812-.347 2.495-1.042.684-.695 1.026-1.544 1.026-2.547 0-.98-.342-1.817-1.026-2.512-.683-.695-1.515-1.042-2.495-1.042h-4.272v-12.852c0-.98-.348-1.817-1.043-2.512a3.424 3.424 0 0 0-2.512-1.042c-1.002 0-1.851.347-2.546 1.042a3.424 3.424 0 0 0-1.043 2.512v12.852h-1.606c-.957 0-1.783.347-2.478 1.042a3.424 3.424 0 0 0-1.043 2.512c0 1.003.348 1.852 1.043 2.547.695.695 1.52 1.042 2.478 1.042h1.606v17.193c0 9.297 4.66 13.945 13.98 13.945zm40.469 0c.98 0 1.817-.347 2.512-1.042.695-.695 1.054-1.544 1.076-2.547V186.63c0-2.461-.478-4.78-1.435-6.956-.957-2.176-2.256-4.067-3.897-5.673a18.689 18.689 0 0 0-5.69-3.812 16.95 16.95 0 0 0-6.82-1.4c-4.1 0-7.667 1.173-10.698 3.52V155.9c-.022-1.002-.381-1.851-1.076-2.546a3.424 3.424 0 0 0-2.512-1.042c-.98 0-1.818.347-2.513 1.042-.695.695-1.042 1.544-1.042 2.546v47.51c0 1.003.347 1.852 1.042 2.547a3.424 3.424 0 0 0 2.513 1.042c1.002 0 1.85-.347 2.546-1.042.695-.695 1.042-1.544 1.042-2.547V186.63c0-1.458.28-2.837.838-4.136a10.837 10.837 0 0 1 2.307-3.418c.98-.98 2.113-1.749 3.4-2.307 1.288-.558 2.672-.837 4.154-.837 1.458 0 2.837.284 4.135.854a11.017 11.017 0 0 1 3.401 2.307 11.017 11.017 0 0 1 2.307 3.401c.57 1.299.855 2.678.855 4.136v16.782c0 1.003.347 1.852 1.042 2.547a3.424 3.424 0 0 0 2.513 1.042zm28.095 0c4.808 0 8.978-1.55 12.51-4.648.684-.707 1.025-1.561 1.025-2.564 0-1.025-.336-1.874-1.008-2.546-.672-.673-1.52-1.009-2.546-1.009a3.735 3.735 0 0 0-2.359.89 11.328 11.328 0 0 1-3.486 2.05c-1.253.456-2.632.683-4.136.683a11.87 11.87 0 0 1-3.81-.615 12.282 12.282 0 0 1-3.35-1.726 12.003 12.003 0 0 1-2.65-2.666 11.683 11.683 0 0 1-1.708-3.435h27.07c1.003 0 1.851-.336 2.546-1.008.695-.672 1.043-1.521 1.043-2.547 0-2.643-.467-5.098-1.401-7.365-.935-2.268-2.336-4.324-4.205-6.17-3.782-3.737-8.294-5.605-13.535-5.605-5.286 0-9.798 1.868-13.535 5.605s-5.605 8.249-5.605 13.535c0 5.287 1.868 9.799 5.605 13.536S419.995 207 425.281 207zm11.519-22.695h-23.037a11.07 11.07 0 0 1 1.675-3.435 11.839 11.839 0 0 1 2.666-2.666 12.484 12.484 0 0 1 3.383-1.726 11.92 11.92 0 0 1 3.794-.616c1.3 0 2.558.205 3.777.616 1.22.41 2.336.985 3.35 1.726 1.014.74 1.902 1.629 2.666 2.666a11.454 11.454 0 0 1 1.726 3.435zM519.515 207c.98 0 1.817-.347 2.512-1.042.695-.695 1.042-1.544 1.042-2.547v-19.448c0-2.074-.404-4.039-1.213-5.896-.809-1.857-1.903-3.475-3.281-4.854-1.379-1.378-2.997-2.472-4.854-3.28a14.605 14.605 0 0 0-5.896-1.214c-4.603 0-8.488 1.811-11.655 5.434-1.504-1.823-3.259-3.184-5.264-4.084-2.005-.9-4.147-1.35-6.426-1.35-3.098 0-5.867.809-8.305 2.427a3.347 3.347 0 0 0-1.265-1.76c-.615-.445-1.321-.667-2.119-.667-.98 0-1.817.347-2.512 1.042a3.424 3.424 0 0 0-1.043 2.512v31.138c0 1.003.348 1.852 1.043 2.547.695.695 1.544 1.042 2.546 1.042.98 0 1.817-.347 2.512-1.042.695-.695 1.043-1.544 1.043-2.547v-19.448c0-1.117.21-2.165.632-3.145a8.191 8.191 0 0 1 4.324-4.323 7.871 7.871 0 0 1 3.144-.633c1.117 0 2.165.217 3.145.65a8.373 8.373 0 0 1 2.563 1.743c.73.729 1.31 1.584 1.744 2.563.433.98.65 2.028.65 3.145v19.448c0 1.003.347 1.852 1.042 2.547.695.695 1.543 1.042 2.546 1.042.98 0 1.817-.347 2.512-1.042.695-.695 1.043-1.544 1.043-2.547v-19.448c0-1.117.21-2.165.632-3.145a7.99 7.99 0 0 1 1.743-2.563c.74-.73 1.6-1.31 2.58-1.743a7.693 7.693 0 0 1 3.145-.65c1.14 0 2.205.217 3.196.65a8.17 8.17 0 0 1 2.58 1.76c.73.74 1.305 1.6 1.727 2.58.421.98.632 2.017.632 3.11v19.45c0 1.002.342 1.85 1.025 2.546.684.695 1.527 1.042 2.53 1.042zm28.813 0c5.241 0 9.753-1.868 13.535-5.605 3.737-3.692 5.606-8.204 5.606-13.536-.023-2.643-.496-5.092-1.419-7.348-.923-2.256-2.318-4.318-4.187-6.187-3.782-3.737-8.294-5.605-13.535-5.605-5.286 0-9.798 1.868-13.535 5.605s-5.606 8.249-5.606 13.535c0 5.287 1.869 9.799 5.606 13.536S543.042 207 548.328 207zm0-7.144c-1.686 0-3.258-.319-4.717-.957a12.099 12.099 0 0 1-3.794-2.58 12.215 12.215 0 0 1-2.546-3.811 11.65 11.65 0 0 1-.94-4.649c0-1.64.313-3.19.94-4.648a12.215 12.215 0 0 1 2.546-3.811 12.099 12.099 0 0 1 3.794-2.58c1.459-.639 3.03-.958 4.717-.958 1.664 0 3.224.32 4.683.957a12.161 12.161 0 0 1 6.374 6.409c.627 1.447.94 2.99.94 4.631s-.313 3.185-.94 4.632a12.161 12.161 0 0 1-6.375 6.409c-1.458.637-3.018.956-4.682.956zm43.75 7.144c5.241 0 9.753-1.868 13.535-5.605 3.737-3.692 5.606-8.204 5.606-13.536v-31.992c0-1.025-.348-1.874-1.043-2.546-.695-.672-1.544-1.008-2.546-1.008-1.026 0-1.874.336-2.547 1.008-.672.672-1.008 1.52-1.008 2.546v17.056c-3.463-2.803-7.462-4.204-11.997-4.204-5.286 0-9.798 1.868-13.535 5.605s-5.606 8.249-5.606 13.535c0 5.287 1.869 9.799 5.606 13.536S586.792 207 592.078 207zm0-7.144c-1.686 0-3.258-.319-4.717-.957a12.099 12.099 0 0 1-3.794-2.58 12.215 12.215 0 0 1-2.546-3.811 11.65 11.65 0 0 1-.94-4.649c0-1.64.313-3.19.94-4.648a12.215 12.215 0 0 1 2.546-3.811 12.099 12.099 0 0 1 3.794-2.58c1.459-.639 3.03-.958 4.717-.958 1.664 0 3.224.32 4.683.957a12.161 12.161 0 0 1 6.374 6.409c.627 1.447.94 2.99.94 4.631s-.313 3.185-.94 4.632a12.161 12.161 0 0 1-6.375 6.409c-1.458.637-3.018.956-4.682.956zm43.75 7.144c4.808 0 8.978-1.55 12.51-4.648.683-.707 1.025-1.561 1.025-2.564 0-1.025-.336-1.874-1.008-2.546-.672-.673-1.521-1.009-2.546-1.009a3.735 3.735 0 0 0-2.359.89 11.328 11.328 0 0 1-3.486 2.05c-1.253.456-2.632.683-4.136.683a11.87 11.87 0 0 1-3.81-.615 12.282 12.282 0 0 1-3.35-1.726 12.003 12.003 0 0 1-2.65-2.666 11.683 11.683 0 0 1-1.708-3.435h27.07c1.002 0 1.851-.336 2.546-1.008.695-.672 1.043-1.521 1.043-2.547 0-2.643-.467-5.098-1.402-7.365-.934-2.268-2.335-4.324-4.204-6.17-3.782-3.737-8.294-5.605-13.535-5.605-5.286 0-9.798 1.868-13.535 5.605s-5.606 8.249-5.606 13.535c0 5.287 1.869 9.799 5.606 13.536S630.542 207 635.828 207zm11.519-22.695H624.31a11.07 11.07 0 0 1 1.674-3.435 11.839 11.839 0 0 1 2.666-2.666 12.484 12.484 0 0 1 3.384-1.726 11.92 11.92 0 0 1 3.794-.616c1.299 0 2.558.205 3.777.616 1.22.41 2.336.985 3.35 1.726 1.014.74 1.902 1.629 2.666 2.666a11.454 11.454 0 0 1 1.726 3.435zM663.89 207c.98 0 1.817-.347 2.512-1.042a3.424 3.424 0 0 0 1.042-2.513V187.86c0-1.663.314-3.224.94-4.682a12.068 12.068 0 0 1 2.564-3.811 12.068 12.068 0 0 1 3.81-2.564c1.46-.626 3.02-.94 4.683-.94 1.687 0 3.247.285 4.683.855.57.25 1.071.376 1.504.376.501 0 .968-.091 1.401-.274a3.365 3.365 0 0 0 1.128-.769c.32-.33.576-.712.77-1.145.193-.433.29-.9.29-1.401 0-.98-.32-1.777-.957-2.393-.638-.615-1.441-1.1-2.41-1.452a14.116 14.116 0 0 0-3.179-.735 27.468 27.468 0 0 0-3.23-.205c-2.278 0-4.42.364-6.425 1.094a19.586 19.586 0 0 0-5.572 3.144v-.684c0-.98-.347-1.817-1.042-2.512a3.424 3.424 0 0 0-2.512-1.042c-1.003 0-1.852.347-2.547 1.042a3.424 3.424 0 0 0-1.042 2.512v31.172c0 .98.347 1.818 1.042 2.513.695.695 1.544 1.042 2.547 1.042zm61.455 0c.98 0 1.817-.347 2.512-1.042.695-.695 1.042-1.544 1.042-2.547v-16.85c0-2.461-.478-4.78-1.435-6.956-.957-2.176-2.256-4.067-3.897-5.674a18.689 18.689 0 0 0-5.69-3.81 16.95 16.95 0 0 0-6.82-1.402c-4.1 0-7.667 1.173-10.698 3.52 0-.934-.347-1.754-1.042-2.46-.695-.707-1.532-1.06-2.512-1.06-1.003 0-1.852.353-2.547 1.06-.695.706-1.042 1.549-1.042 2.529v31.103c0 1.003.347 1.852 1.042 2.547.695.695 1.544 1.042 2.547 1.042.98 0 1.817-.347 2.512-1.042.695-.695 1.042-1.544 1.042-2.547v-16.85c0-1.459.28-2.837.838-4.136a10.837 10.837 0 0 1 2.307-3.418c.98-.98 2.113-1.749 3.4-2.307 1.288-.559 2.672-.838 4.154-.838 1.458 0 2.837.285 4.135.855a11.017 11.017 0 0 1 3.401 2.307 11.017 11.017 0 0 1 2.307 3.4c.57 1.3.855 2.678.855 4.137v16.85c0 1.003.347 1.852 1.042 2.547.695.695 1.544 1.042 2.547 1.042zm62.89 0c.935 0 1.675-.216 2.222-.65.547-.432.923-.98 1.128-1.64l10.356-31.07a3.84 3.84 0 0 0 .274-1.367 3.31 3.31 0 0 0-.29-1.367 3.964 3.964 0 0 0-.77-1.145 3.365 3.365 0 0 0-1.128-.769 3.574 3.574 0 0 0-1.401-.273c-.866 0-1.572.182-2.12.547-.546.364-.91.843-1.093 1.435l-7.178 21.465-6.938-20.815c-.593-1.755-1.732-2.632-3.418-2.632-1.71 0-2.86.877-3.452 2.632l-6.939 20.78-7.177-21.43c-.206-.547-.587-1.014-1.145-1.401-.559-.388-1.248-.581-2.068-.581-.502 0-.969.09-1.402.273a3.365 3.365 0 0 0-1.128.77 3.7 3.7 0 0 0-.752 1.144 3.488 3.488 0 0 0-.273 1.367c0 .41.08.866.24 1.368l10.356 31.069c.228.66.643 1.208 1.247 1.64.604.434 1.305.65 2.102.65.798 0 1.504-.216 2.12-.65.615-.432 1.025-.98 1.23-1.64l7.04-21.123 7.042 21.123c.182.615.581 1.15 1.196 1.606a3.466 3.466 0 0 0 2.12.684zm39 0c4.807 0 8.977-1.55 12.51-4.648.683-.707 1.025-1.561 1.025-2.564 0-1.025-.337-1.874-1.009-2.546-.672-.673-1.52-1.009-2.546-1.009a3.735 3.735 0 0 0-2.359.89 11.328 11.328 0 0 1-3.486 2.05c-1.253.456-2.632.683-4.136.683a11.87 11.87 0 0 1-3.81-.615 12.282 12.282 0 0 1-3.35-1.726 12.003 12.003 0 0 1-2.65-2.666 11.683 11.683 0 0 1-1.708-3.435h27.07c1.003 0 1.852-.336 2.547-1.008.695-.672 1.042-1.521 1.042-2.547 0-2.643-.467-5.098-1.401-7.365-.935-2.268-2.336-4.324-4.204-6.17-3.783-3.737-8.295-5.605-13.536-5.605-5.286 0-9.798 1.868-13.535 5.605s-5.605 8.249-5.605 13.535c0 5.287 1.868 9.799 5.605 13.536S821.948 207 827.234 207zm11.518-22.695h-23.037a11.07 11.07 0 0 1 1.675-3.435 11.839 11.839 0 0 1 2.666-2.666 12.484 12.484 0 0 1 3.383-1.726 11.92 11.92 0 0 1 3.794-.616c1.3 0 2.558.205 3.777.616 1.22.41 2.336.985 3.35 1.726 1.014.74 1.903 1.629 2.666 2.666a11.454 11.454 0 0 1 1.726 3.435zM870.984 207c5.241 0 9.753-1.868 13.536-5.605 3.737-3.692 5.605-8.204 5.605-13.536 0-2.643-.467-5.098-1.401-7.365-.935-2.268-2.336-4.324-4.204-6.17-3.783-3.737-8.295-5.605-13.536-5.605-4.602 0-8.602 1.413-11.997 4.238v-17.09c0-1.025-.347-1.874-1.042-2.546-.695-.672-1.544-1.008-2.547-1.008-1.025 0-1.874.336-2.546 1.008-.672.672-1.008 1.52-1.008 2.546v31.992c0 5.287 1.868 9.799 5.605 13.536S865.698 207 870.984 207zm0-7.144c-1.686 0-3.258-.319-4.716-.957a12.099 12.099 0 0 1-3.794-2.58 12.215 12.215 0 0 1-2.547-3.811 11.65 11.65 0 0 1-.94-4.649c0-1.64.314-3.19.94-4.648a12.215 12.215 0 0 1 2.547-3.811 12.099 12.099 0 0 1 3.794-2.58c1.458-.639 3.03-.958 4.716-.958 1.664 0 3.225.32 4.683.957a12.161 12.161 0 0 1 6.375 6.409c.626 1.447.94 2.99.94 4.631s-.314 3.185-.94 4.632a12.161 12.161 0 0 1-6.375 6.409c-1.458.637-3.02.956-4.683.956zM26.567 159c.2 0 .372-.07.513-.212a.698.698 0 0 0 .212-.513c0-.2-.07-.371-.212-.512a.698.698 0 0 0-.513-.212H20.97v-3.295h4.02c.2 0 .37-.07.512-.212a.698.698 0 0 0 .212-.513c0-.2-.07-.371-.212-.512a.698.698 0 0 0-.513-.212h-4.02v-3.295h5.6c.2 0 .37-.07.512-.212a.698.698 0 0 0 .212-.513c0-.2-.07-.371-.212-.513a.698.698 0 0 0-.513-.212h-6.323a.71.71 0 0 0-.725.725v9.488a.71.71 0 0 0 .725.725h6.323zm8.217 0c.2 0 .372-.07.513-.212a.698.698 0 0 0 .212-.513c0-.2-.07-.371-.212-.512a.698.698 0 0 0-.513-.212h-5.072v-8.764c0-.2-.07-.371-.212-.513a.698.698 0 0 0-.513-.212c-.2 0-.371.071-.512.212a.698.698 0 0 0-.212.513v9.488a.71.71 0 0 0 .725.725h5.796zm8.737 0c.2 0 .37-.07.512-.212a.698.698 0 0 0 .212-.513c0-.2-.07-.371-.212-.512a.698.698 0 0 0-.512-.212h-5.6v-3.295h4.02c.2 0 .372-.07.513-.212a.698.698 0 0 0 .212-.513c0-.2-.07-.371-.212-.512a.698.698 0 0 0-.513-.212h-4.02v-3.295h5.6c.2 0 .37-.07.512-.212a.698.698 0 0 0 .212-.513c0-.2-.07-.371-.212-.513a.698.698 0 0 0-.512-.212h-6.324a.71.71 0 0 0-.725.725v9.488a.71.71 0 0 0 .725.725h6.324zm11.942 0c.2 0 .371-.07.513-.212a.698.698 0 0 0 .212-.513v-9.488a.74.74 0 0 0-.209-.516.74.74 0 0 0-.516-.208c-.264 0-.479.13-.643.39l-4.101 8.195-4.102-8.196c-.146-.26-.36-.39-.642-.39a.71.71 0 0 0-.725.725v9.488c0 .2.07.372.212.513a.698.698 0 0 0 .513.212c.2 0 .371-.07.512-.212a.698.698 0 0 0 .212-.513v-6.412l3.357 6.7c.14.291.362.437.663.437.278 0 .487-.12.629-.362l3.39-6.775v6.412c0 .2.07.372.212.513a.698.698 0 0 0 .513.212zm8.839 0c.2 0 .371-.07.512-.212a.698.698 0 0 0 .212-.513c0-.2-.07-.371-.212-.512a.698.698 0 0 0-.512-.212h-5.599v-3.295h4.02c.2 0 .371-.07.512-.212a.698.698 0 0 0 .212-.513c0-.2-.07-.371-.212-.512a.698.698 0 0 0-.512-.212h-4.02v-3.295h5.599c.2 0 .371-.07.512-.212a.698.698 0 0 0 .212-.513c0-.2-.07-.371-.212-.513a.698.698 0 0 0-.512-.212h-6.323a.71.71 0 0 0-.725.725v9.488a.71.71 0 0 0 .725.725h6.323zm9.816 0a.74.74 0 0 0 .516-.208.71.71 0 0 0 .209-.517v-9.488c0-.2-.07-.371-.212-.513a.698.698 0 0 0-.513-.212c-.2 0-.371.071-.513.212a.698.698 0 0 0-.211.513v7.383l-6.098-7.84a.732.732 0 0 0-1.077-.059.74.74 0 0 0-.208.516v9.488c0 .2.07.372.212.513a.698.698 0 0 0 .512.212c.2 0 .372-.07.513-.212a.698.698 0 0 0 .212-.513v-7.369l6.104 7.841c.155.169.34.253.554.253zm5.886 0c.2 0 .371-.07.513-.212a.698.698 0 0 0 .212-.513v-8.763h2.7c.2 0 .371-.07.512-.212a.698.698 0 0 0 .212-.513c0-.2-.07-.371-.212-.513a.698.698 0 0 0-.512-.212h-6.85c-.2 0-.371.071-.513.212a.698.698 0 0 0-.212.513c0 .2.071.372.212.513a.698.698 0 0 0 .513.212h2.7v8.763c0 .2.07.372.212.513a.698.698 0 0 0 .513.212zm8.114 0c.807 0 1.527-.269 2.16-.807.784-.665 1.176-1.53 1.176-2.597 0-.429-.082-.837-.246-1.224a3.45 3.45 0 0 0-1.647-1.757 3.183 3.183 0 0 0-1.197-.328 1.269 1.269 0 0 1-.495-.14 1.431 1.431 0 0 1-.67-.735c-.066-.16-.1-.328-.1-.506 0-.196.04-.378.12-.547a1.452 1.452 0 0 1 .749-.728c.164-.07.332-.106.506-.106.218 0 .422.04.611.12a1 1 0 0 1 .448.359c.06.086.115.163.168.229.052.066.107.124.164.174a.634.634 0 0 0 .434.157.74.74 0 0 0 .516-.208.71.71 0 0 0 .208-.516.766.766 0 0 0-.102-.39 3.054 3.054 0 0 0-.496-.608 2.92 2.92 0 0 0-.594-.434 2.76 2.76 0 0 0-1.344-.345c-.706 0-1.321.227-1.845.683-.324.283-.57.605-.739.967a2.841 2.841 0 0 0-.253 1.214c0 .364.068.71.202 1.035.134.326.32.616.557.869.237.252.513.459.827.618.315.16.654.255 1.019.287a1.983 1.983 0 0 1 1.23.598c.16.167.286.36.38.582.093.22.14.456.14.707a1.954 1.954 0 0 1-.557 1.36c-.171.174-.372.311-.602.414-.23.103-.475.154-.735.154-.332 0-.642-.075-.93-.226a1.9 1.9 0 0 1-.717-.67.669.669 0 0 0-.609-.335.71.71 0 0 0-.725.725c0 .169.049.314.144.437a3.387 3.387 0 0 0 1.261 1.128c.249.128.508.225.777.29.268.067.537.1.806.1zM628.773 164c.308 0 .572-.11.79-.328.218-.218.328-.481.328-.79v-4.898c0-1.661-.588-3.08-1.762-4.254-1.189-1.174-2.607-1.761-4.254-1.761-1.661 0-3.08.587-4.254 1.761-1.174 1.175-1.762 2.593-1.762 4.254 0 1.662.588 3.08 1.762 4.254 1.175 1.175 2.593 1.762 4.254 1.762.716 0 1.39-.115 2.02-.344a6.156 6.156 0 0 0 1.75-.988v.215c0 .308.11.57.328.79.219.218.485.327.8.327zm-4.898-2.245c-.53 0-1.024-.1-1.482-.3-.459-.201-.856-.472-1.193-.812a3.84 3.84 0 0 1-.8-1.198 3.661 3.661 0 0 1-.296-1.46c0-.516.099-1.003.296-1.462a3.84 3.84 0 0 1 .8-1.197c.337-.34.734-.61 1.193-.811.458-.2.952-.301 1.482-.301.523 0 1.013.1 1.472.3a3.822 3.822 0 0 1 2.003 2.015c.197.455.296.94.296 1.455 0 .516-.099 1.001-.296 1.456a3.822 3.822 0 0 1-2.003 2.014c-.459.2-.95.3-1.472.3zM641.696 164c.308 0 .571-.11.79-.328.218-.218.327-.485.327-.8v-5.296a5.37 5.37 0 0 0-.45-2.186 5.653 5.653 0 0 0-1.225-1.783 5.874 5.874 0 0 0-1.789-1.198 5.327 5.327 0 0 0-2.143-.44c-1.289 0-2.41.369-3.362 1.106 0-.293-.11-.551-.328-.773a1.068 1.068 0 0 0-.79-.333 1.08 1.08 0 0 0-.8.333 1.094 1.094 0 0 0-.327.795v9.775c0 .315.109.582.327.8.219.219.485.328.8.328.309 0 .572-.11.79-.328.219-.218.328-.485.328-.8v-5.296c0-.458.087-.891.263-1.3a3.406 3.406 0 0 1 1.794-1.799c.405-.175.84-.263 1.305-.263a3.2 3.2 0 0 1 1.3.268c.408.18.764.421 1.069.726.304.304.546.66.725 1.068a3.2 3.2 0 0 1 .268 1.3v5.296c0 .315.11.582.328.8.218.219.485.328.8.328zm8.82 0c1.647 0 3.065-.587 4.254-1.762 1.174-1.16 1.761-2.578 1.761-4.254V147.93c0-.323-.109-.59-.327-.8a1.108 1.108 0 0 0-.8-.317c-.323 0-.59.105-.801.316a1.085 1.085 0 0 0-.317.8v5.361c-1.088-.88-2.345-1.321-3.77-1.321-1.662 0-3.08.587-4.254 1.761-1.175 1.175-1.762 2.593-1.762 4.254 0 1.662.587 3.08 1.762 4.254 1.174 1.175 2.592 1.762 4.254 1.762zm0-2.245c-.53 0-1.024-.1-1.483-.3-.458-.201-.856-.472-1.192-.812a3.84 3.84 0 0 1-.8-1.198 3.661 3.661 0 0 1-.296-1.46c0-.516.099-1.003.296-1.462a3.84 3.84 0 0 1 .8-1.197c.336-.34.734-.61 1.192-.811.459-.2.953-.301 1.483-.301.522 0 1.013.1 1.471.3a3.822 3.822 0 0 1 2.004 2.015c.197.455.295.94.295 1.455 0 .516-.098 1.001-.295 1.456a3.822 3.822 0 0 1-2.003 2.014c-.459.2-.95.3-1.472.3zM666.854 164c.158 0 .305-.029.44-.086.137-.057.255-.138.355-.242.1-.103.18-.223.237-.36.057-.136.086-.279.086-.43v-8.056h2.159c.308 0 .571-.109.79-.327.218-.219.327-.486.327-.8 0-.309-.11-.572-.328-.79a1.076 1.076 0 0 0-.79-.328h-2.158v-.559c0-1.969.988-2.954 2.965-2.954.307 0 .57-.109.79-.327.217-.219.327-.485.327-.8 0-.309-.11-.572-.328-.79a1.076 1.076 0 0 0-.79-.328c-3.466 0-5.199 1.733-5.199 5.2v.558h-.515a1.085 1.085 0 0 0-1.117 1.117c0 .323.105.591.316.806.212.215.478.322.8.322h.516v8.057c0 .15.029.293.086.43.058.136.136.256.237.36.1.103.218.184.354.241.136.057.283.086.44.086zm16.082 0c.315 0 .581-.11.8-.328.218-.218.327-.481.327-.79v-9.796c0-.308-.109-.571-.327-.79a1.076 1.076 0 0 0-.79-.327c-.315 0-.582.109-.8.327a1.076 1.076 0 0 0-.328.79v5.307c0 .465-.087.9-.263 1.305a3.423 3.423 0 0 1-1.8 1.794 3.257 3.257 0 0 1-1.299.263c-.465 0-.902-.088-1.31-.263a3.387 3.387 0 0 1-1.07-.72 3.387 3.387 0 0 1-.72-1.069 3.283 3.283 0 0 1-.262-1.31v-5.307c0-.308-.11-.571-.328-.79a1.076 1.076 0 0 0-.79-.327c-.315 0-.581.109-.8.327a1.076 1.076 0 0 0-.327.79v5.307c0 .766.148 1.49.445 2.17.298.68.7 1.274 1.209 1.783a5.752 5.752 0 0 0 1.783 1.208c.68.297 1.404.446 2.17.446.645 0 1.243-.088 1.794-.263a4.995 4.995 0 0 0 1.568-.843c.008.307.115.569.323.784.207.215.472.322.795.322zm8.765 0c.308 0 .57-.11.784-.328.215-.218.323-.485.323-.8 0-.308-.108-.571-.323-.79a1.059 1.059 0 0 0-.784-.327c-1.432 0-2.148-.713-2.148-2.138v-5.403h1.343c.307 0 .569-.11.784-.328.215-.218.322-.485.322-.8 0-.308-.107-.571-.322-.79a1.059 1.059 0 0 0-.784-.327h-1.343v-4.04c0-.307-.11-.57-.328-.789a1.076 1.076 0 0 0-.79-.327c-.315 0-.581.109-.8.327a1.076 1.076 0 0 0-.327.79v4.039h-.505c-.301 0-.56.109-.78.327a1.076 1.076 0 0 0-.327.79c0 .315.11.582.328.8.218.219.478.328.779.328h.505v5.403c0 2.922 1.464 4.383 4.393 4.383zm12.719 0c.315 0 .582-.11.8-.328.219-.218.328-.481.328-.79v-9.796c0-.308-.11-.571-.328-.79a1.076 1.076 0 0 0-.79-.327c-.314 0-.581.109-.8.327a1.076 1.076 0 0 0-.327.79v5.307c0 .465-.088.9-.263 1.305a3.423 3.423 0 0 1-1.8 1.794 3.257 3.257 0 0 1-1.3.263c-.465 0-.902-.088-1.31-.263a3.387 3.387 0 0 1-1.069-.72 3.387 3.387 0 0 1-.72-1.069 3.283 3.283 0 0 1-.263-1.31v-5.307c0-.308-.11-.571-.328-.79a1.076 1.076 0 0 0-.79-.327c-.314 0-.58.109-.8.327a1.076 1.076 0 0 0-.327.79v5.307c0 .766.149 1.49.446 2.17.297.68.7 1.274 1.208 1.783a5.752 5.752 0 0 0 1.784 1.208c.68.297 1.403.446 2.17.446.644 0 1.242-.088 1.793-.263a4.995 4.995 0 0 0 1.569-.843c.007.307.114.569.322.784.208.215.473.322.795.322zm3.9 0c.307 0 .57-.11.789-.328.218-.218.328-.481.328-.79v-4.898c0-.522.098-1.013.295-1.471.197-.459.465-.858.806-1.198.34-.34.739-.609 1.197-.806a3.688 3.688 0 0 1 1.472-.295c.53 0 1.02.09 1.472.268a1.2 1.2 0 0 0 .472.119c.158 0 .305-.03.44-.086.137-.058.255-.138.355-.242.1-.104.181-.224.242-.36.06-.136.091-.283.091-.44 0-.308-.1-.559-.3-.752a2.12 2.12 0 0 0-.758-.457 4.437 4.437 0 0 0-.999-.23 8.633 8.633 0 0 0-1.015-.065c-.716 0-1.39.114-2.02.344-.63.229-1.213.558-1.75.988v-.215c0-.308-.11-.571-.328-.79a1.076 1.076 0 0 0-.79-.327c-.315 0-.582.109-.8.327a1.076 1.076 0 0 0-.328.79v9.797c0 .308.11.57.328.79.218.218.485.327.8.327zm15.242 0c1.512 0 2.822-.487 3.932-1.46.215-.223.322-.491.322-.807 0-.322-.105-.589-.316-.8a1.085 1.085 0 0 0-.8-.317c-.28.007-.527.1-.742.28a3.56 3.56 0 0 1-1.096.644 3.778 3.778 0 0 1-1.3.215 3.73 3.73 0 0 1-1.197-.193 3.772 3.772 0 0 1-1.885-1.38 3.672 3.672 0 0 1-.538-1.08h8.508c.315 0 .582-.106.8-.317.219-.212.328-.478.328-.8 0-.831-.147-1.603-.44-2.316a5.842 5.842 0 0 0-1.322-1.939c-1.188-1.174-2.606-1.761-4.254-1.761-1.661 0-3.079.587-4.253 1.761-1.175 1.175-1.762 2.593-1.762 4.254 0 1.662.587 3.08 1.762 4.254 1.174 1.175 2.592 1.762 4.254 1.762zm3.62-7.133h-7.24a3.48 3.48 0 0 1 .527-1.08 3.72 3.72 0 0 1 .838-.837 3.924 3.924 0 0 1 1.063-.543 3.746 3.746 0 0 1 2.38 0 3.86 3.86 0 0 1 1.89 1.38c.24.326.42.686.543 1.08z"/>
    </g>
</svg>