<svg width="217" height="64" viewBox="0 0 217 64" fill="none" xmlns="http://www.w3.org/2000/svg">
<rect width="217" height="64" rx="8" fill="#202020"/>
<path d="M49.8863 15C50.2882 15 50.6322 15.1256 50.9185 15.3767C51.2047 15.6275 51.3478 15.9293 51.3478 16.2816V28.1596C51.3478 28.5118 51.2047 28.8136 50.9185 29.0644C50.6322 29.3156 50.2882 29.441 49.8863 29.441C49.4844 29.441 49.1403 29.3156 48.8541 29.0644C48.5678 28.8136 48.4247 28.5118 48.4247 28.1596V27.1182C46.5978 28.6666 44.4056 29.441 41.8478 29.441C39.3741 29.441 37.2401 28.7142 35.4457 27.2608V33.8001C35.4795 33.7697 35.5138 33.7394 35.5481 33.7092C37.5441 31.9604 39.954 31.0861 42.7772 31.0861C45.6003 31.0861 48.0104 31.9604 50.0063 33.7092C52.0021 35.458 53 37.5693 53 40.0431C53 40.3949 52.8571 40.6962 52.5711 40.9468C52.285 41.1972 51.9412 41.3226 51.5397 41.3226H35.603L35.6268 41.4274C35.9093 42.6106 36.5706 43.658 37.611 44.5696C39.0348 45.817 40.757 46.4409 42.7772 46.4409C44.6028 46.4409 46.1726 45.9345 47.4869 44.9213C47.7548 44.7401 48.059 44.6495 48.3997 44.6495C48.8014 44.6495 49.1453 44.7747 49.4311 45.0253C49.7171 45.2759 49.86 45.5772 49.86 45.929C49.86 46.2809 49.7202 46.5849 49.4402 46.8408C47.554 48.2803 45.3329 49 42.7772 49C39.9538 49 37.5439 48.1257 35.5481 46.3769C34.9401 45.844 34.4246 45.2776 34.0017 44.6773C33.5785 45.2787 33.062 45.8464 32.4519 46.3802C30.4559 48.1268 28.046 49 25.2228 49C22.3997 49 19.9896 48.1268 17.9937 46.3802C15.9979 44.6336 15 42.525 15 40.054C15 37.5834 15.9979 35.4747 17.9937 33.728C19.9898 31.9816 22.3995 31.1082 25.2228 31.1082C27.9826 31.1082 30.347 31.9427 32.3162 33.6114V23.3228C32.3162 21.7331 31.6735 20.3753 30.3886 19.2494C29.1038 18.1241 27.5538 17.5611 25.7391 17.5611C23.9244 17.5611 22.3745 18.124 21.0897 19.2496C19.8047 20.3754 19.1622 21.7332 19.1622 23.323V28.6959C19.1622 29.048 19.0191 29.3494 18.7329 29.6002C18.4466 29.851 18.1026 29.9764 17.7007 29.9764C17.2988 29.9764 16.9547 29.851 16.6685 29.6002C16.3822 29.3494 16.2391 29.048 16.2391 28.6959V16.2805C16.2391 15.9286 16.3822 15.627 16.6685 15.3764C16.9547 15.1256 17.2986 15 17.7007 15C18.1026 15 18.4466 15.1256 18.7329 15.3764C19.0191 15.627 19.1622 15.9284 19.1622 16.2807V17.3209C20.9891 15.7738 23.1814 15 25.7391 15C28.3578 15 30.5957 15.8138 32.4532 17.441C33.8813 18.6923 34.7352 20.0107 35.0904 21.7861C35.4457 23.5614 35.9134 24.0611 37.1984 25.1877C38.4832 26.3144 40.0331 26.8778 41.8478 26.8778C43.6625 26.8778 45.2125 26.3144 46.4972 25.1877C47.7822 24.0611 48.4247 22.7021 48.4247 21.1108V16.2816C48.4247 15.9291 48.5678 15.6274 48.8541 15.3764C49.1403 15.1254 49.4844 15 49.8863 15ZM25.2228 33.6644C23.2026 33.6644 21.4807 34.2874 20.0567 35.5335C18.6327 36.7794 17.9208 38.2864 17.9208 40.0542C17.9208 41.822 18.6327 43.329 20.0567 44.5751C21.4804 45.821 23.2026 46.444 25.2228 46.444C27.243 46.444 28.965 45.821 30.389 44.5751C31.8129 43.329 32.5248 41.8222 32.5248 40.0542C32.5248 38.2864 31.8129 36.7794 30.389 35.5335C28.9652 34.2874 27.243 33.6644 25.2228 33.6644ZM42.7772 33.6452C40.757 33.6452 39.035 34.2689 37.611 35.5167C36.54 36.455 35.8707 37.5373 35.603 38.7635H49.9513C49.6837 37.5373 49.0143 36.4548 47.9433 35.5167C46.5196 34.2689 44.7974 33.6452 42.7772 33.6452Z" fill="#E1DEE4"/>
<path d="M71.544 24.2C71.928 24.2 72.24 24.328 72.48 24.584C72.72 24.84 72.84 25.16 72.84 25.544V39.536C72.84 39.952 72.696 40.304 72.408 40.592C72.136 40.864 71.792 41 71.376 41C71.152 41 70.928 40.968 70.704 40.904C70.496 40.824 70.344 40.72 70.248 40.592L61.44 29.408V39.656C61.44 40.04 61.312 40.36 61.056 40.616C60.816 40.872 60.496 41 60.096 41C59.712 41 59.4 40.872 59.16 40.616C58.92 40.36 58.8 40.04 58.8 39.656V25.664C58.8 25.248 58.936 24.904 59.208 24.632C59.496 24.344 59.848 24.2 60.264 24.2C60.504 24.2 60.736 24.248 60.96 24.344C61.2 24.44 61.376 24.568 61.488 24.728L70.224 35.864V25.544C70.224 25.16 70.344 24.84 70.584 24.584C70.84 24.328 71.16 24.2 71.544 24.2ZM85.7364 28.16C86.1524 28.16 86.4964 28.304 86.7684 28.592C87.0404 28.864 87.1764 29.208 87.1764 29.624V35.72C87.1764 37.448 86.6964 38.8 85.7364 39.776C84.7924 40.752 83.4404 41.24 81.6804 41.24C79.9204 41.24 78.5684 40.752 77.6244 39.776C76.6804 38.8 76.2084 37.448 76.2084 35.72V29.624C76.2084 29.208 76.3444 28.864 76.6164 28.592C76.8884 28.304 77.2324 28.16 77.6484 28.16C78.0644 28.16 78.4084 28.304 78.6804 28.592C78.9524 28.864 79.0884 29.208 79.0884 29.624V35.72C79.0884 36.696 79.3044 37.424 79.7364 37.904C80.1684 38.368 80.8164 38.6 81.6804 38.6C82.5604 38.6 83.2164 38.368 83.6484 37.904C84.0804 37.424 84.2964 36.696 84.2964 35.72V29.624C84.2964 29.208 84.4324 28.864 84.7044 28.592C84.9764 28.304 85.3204 28.16 85.7364 28.16ZM105.102 27.92C106.686 27.92 107.782 28.408 108.39 29.384C108.998 30.344 109.302 31.68 109.302 33.392V39.536C109.302 39.952 109.166 40.304 108.894 40.592C108.622 40.864 108.278 41 107.862 41C107.446 41 107.102 40.864 106.83 40.592C106.558 40.304 106.422 39.952 106.422 39.536V33.392C106.422 32.512 106.246 31.824 105.894 31.328C105.558 30.816 104.958 30.56 104.094 30.56C103.198 30.56 102.494 30.832 101.982 31.376C101.486 31.904 101.238 32.576 101.238 33.392V39.536C101.238 39.952 101.102 40.304 100.83 40.592C100.558 40.864 100.214 41 99.7984 41C99.3824 41 99.0384 40.864 98.7664 40.592C98.4944 40.304 98.3584 39.952 98.3584 39.536V33.392C98.3584 32.512 98.1824 31.824 97.8304 31.328C97.4944 30.816 96.8944 30.56 96.0304 30.56C95.1344 30.56 94.4304 30.832 93.9184 31.376C93.4224 31.904 93.1744 32.576 93.1744 33.392V39.536C93.1744 39.952 93.0384 40.304 92.7664 40.592C92.4944 40.864 92.1504 41 91.7344 41C91.3184 41 90.9744 40.864 90.7024 40.592C90.4304 40.304 90.2944 39.952 90.2944 39.536V29.624C90.2944 29.208 90.4304 28.864 90.7024 28.592C90.9744 28.304 91.3184 28.16 91.7344 28.16C92.1504 28.16 92.4944 28.304 92.7664 28.592C93.0384 28.864 93.1744 29.208 93.1744 29.624V30.008C93.6064 29.432 94.1504 28.944 94.8064 28.544C95.4784 28.128 96.2224 27.92 97.0384 27.92C99.0544 27.92 100.342 28.8 100.902 30.56C101.27 29.888 101.822 29.28 102.558 28.736C103.31 28.192 104.158 27.92 105.102 27.92ZM115.539 39.536C115.539 39.952 115.395 40.304 115.107 40.592C114.835 40.864 114.491 41 114.075 41C113.675 41 113.339 40.864 113.067 40.592C112.795 40.304 112.659 39.952 112.659 39.536V24.704C112.659 24.288 112.795 23.944 113.067 23.672C113.355 23.384 113.707 23.24 114.123 23.24C114.523 23.24 114.859 23.384 115.131 23.672C115.403 23.944 115.539 24.288 115.539 24.704V39.536ZM120.16 40.976C119.696 40.976 119.336 40.856 119.08 40.616C118.84 40.36 118.72 40 118.72 39.536V39.128C118.72 38.664 118.84 38.312 119.08 38.072C119.336 37.816 119.696 37.688 120.16 37.688H120.472C120.936 37.688 121.288 37.816 121.528 38.072C121.784 38.312 121.912 38.664 121.912 39.128V39.536C121.912 40 121.784 40.36 121.528 40.616C121.288 40.856 120.936 40.976 120.472 40.976H120.16Z" fill="#E1DEE4"/>
<path d="M132.305 24.2C133.809 24.2 135.097 24.576 136.169 25.328C137.257 26.064 138.081 27.072 138.641 28.352C139.217 29.616 139.505 31.032 139.505 32.6C139.505 34.168 139.217 35.592 138.641 36.872C138.081 38.136 137.257 39.144 136.169 39.896C135.097 40.632 133.809 41 132.305 41H126.569C126.153 41 125.801 40.864 125.513 40.592C125.241 40.304 125.105 39.952 125.105 39.536V25.664C125.105 25.248 125.241 24.904 125.513 24.632C125.801 24.344 126.153 24.2 126.569 24.2H132.305ZM132.065 38.24C133.505 38.24 134.585 37.712 135.305 36.656C136.025 35.584 136.385 34.232 136.385 32.6C136.385 30.968 136.017 29.624 135.281 28.568C134.561 27.496 133.489 26.96 132.065 26.96H128.105V38.24H132.065ZM153.728 34.28C153.712 34.664 153.56 34.976 153.272 35.216C152.984 35.456 152.648 35.576 152.264 35.576H144.344C144.536 36.52 144.976 37.264 145.664 37.808C146.352 38.336 147.128 38.6 147.992 38.6C148.648 38.6 149.16 38.544 149.528 38.432C149.896 38.304 150.184 38.176 150.392 38.048C150.616 37.904 150.768 37.808 150.848 37.76C151.136 37.616 151.408 37.544 151.664 37.544C152 37.544 152.288 37.664 152.528 37.904C152.768 38.144 152.888 38.424 152.888 38.744C152.888 39.176 152.664 39.568 152.216 39.92C151.768 40.288 151.168 40.6 150.416 40.856C149.664 41.112 148.904 41.24 148.136 41.24C146.792 41.24 145.616 40.96 144.608 40.4C143.616 39.84 142.848 39.072 142.304 38.096C141.76 37.104 141.488 35.992 141.488 34.76C141.488 33.384 141.776 32.176 142.352 31.136C142.928 30.096 143.688 29.304 144.632 28.76C145.576 28.2 146.584 27.92 147.656 27.92C148.712 27.92 149.704 28.208 150.632 28.784C151.576 29.36 152.328 30.136 152.888 31.112C153.448 32.088 153.728 33.144 153.728 34.28ZM147.656 30.56C145.8 30.56 144.704 31.432 144.368 33.176H150.656V33.008C150.592 32.336 150.264 31.76 149.672 31.28C149.08 30.8 148.408 30.56 147.656 30.56ZM155.386 39.008C155.242 38.816 155.17 38.576 155.17 38.288C155.17 37.872 155.378 37.52 155.794 37.232C156.018 37.088 156.25 37.016 156.49 37.016C156.826 37.016 157.146 37.168 157.45 37.472C157.93 37.968 158.426 38.336 158.938 38.576C159.466 38.816 160.098 38.936 160.834 38.936C162.082 38.888 162.706 38.416 162.706 37.52C162.706 37.056 162.49 36.704 162.058 36.464C161.642 36.224 160.986 35.984 160.09 35.744C159.162 35.488 158.402 35.232 157.81 34.976C157.234 34.72 156.73 34.336 156.298 33.824C155.882 33.296 155.674 32.592 155.674 31.712C155.674 30.944 155.89 30.28 156.322 29.72C156.77 29.144 157.346 28.704 158.05 28.4C158.77 28.08 159.53 27.92 160.33 27.92C161.146 27.92 161.962 28.072 162.778 28.376C163.594 28.68 164.234 29.128 164.698 29.72C164.906 29.976 165.01 30.264 165.01 30.584C165.01 30.952 164.858 31.256 164.554 31.496C164.33 31.672 164.074 31.76 163.786 31.76C163.434 31.76 163.146 31.648 162.922 31.424C162.634 31.072 162.258 30.792 161.794 30.584C161.346 30.376 160.834 30.272 160.258 30.272C159.042 30.272 158.434 30.712 158.434 31.592C158.434 31.944 158.546 32.232 158.77 32.456C158.994 32.664 159.274 32.832 159.61 32.96C159.962 33.072 160.45 33.216 161.074 33.392C161.938 33.632 162.658 33.88 163.234 34.136C163.81 34.392 164.298 34.784 164.698 35.312C165.098 35.84 165.298 36.536 165.298 37.4C165.298 38.184 165.066 38.872 164.602 39.464C164.138 40.04 163.538 40.48 162.802 40.784C162.082 41.088 161.338 41.24 160.57 41.24C159.514 41.24 158.53 41.064 157.618 40.712C156.706 40.36 155.962 39.792 155.386 39.008ZM170.42 39.536C170.42 39.952 170.284 40.304 170.012 40.592C169.74 40.864 169.396 41 168.98 41C168.564 41 168.22 40.864 167.948 40.592C167.676 40.304 167.54 39.952 167.54 39.536V29.624C167.54 29.208 167.676 28.864 167.948 28.592C168.22 28.304 168.564 28.16 168.98 28.16C169.396 28.16 169.74 28.304 170.012 28.592C170.284 28.864 170.42 29.208 170.42 29.624V39.536ZM168.956 26.6C168.412 26.6 168.028 26.512 167.804 26.336C167.58 26.16 167.468 25.848 167.468 25.4V24.944C167.468 24.496 167.588 24.184 167.828 24.008C168.068 23.832 168.452 23.744 168.98 23.744C169.54 23.744 169.932 23.832 170.156 24.008C170.38 24.184 170.492 24.496 170.492 24.944V25.4C170.492 25.864 170.372 26.184 170.132 26.36C169.908 26.52 169.516 26.6 168.956 26.6ZM184.012 27.92C184.428 27.92 184.772 28.056 185.044 28.328C185.316 28.6 185.452 28.952 185.452 29.384V40.064C185.452 42.016 184.844 43.456 183.628 44.384C182.428 45.328 180.9 45.8 179.044 45.8C178.564 45.8 177.9 45.72 177.052 45.56C176.22 45.4 175.628 45.24 175.276 45.08C174.492 44.744 174.1 44.28 174.1 43.688C174.1 43.576 174.124 43.448 174.172 43.304C174.268 42.952 174.428 42.68 174.652 42.488C174.892 42.312 175.148 42.224 175.42 42.224C175.58 42.224 175.732 42.248 175.876 42.296C175.94 42.312 176.332 42.456 177.052 42.728C177.788 43.016 178.452 43.16 179.044 43.16C180.228 43.16 181.108 42.92 181.684 42.44C182.276 41.976 182.572 41.312 182.572 40.448V39.296C182.22 39.792 181.684 40.24 180.964 40.64C180.26 41.04 179.5 41.24 178.684 41.24C177.564 41.24 176.54 40.96 175.612 40.4C174.7 39.824 173.98 39.032 173.452 38.024C172.924 37.016 172.66 35.872 172.66 34.592C172.66 33.312 172.916 32.168 173.428 31.16C173.956 30.136 174.668 29.344 175.564 28.784C176.476 28.208 177.484 27.92 178.588 27.92C179.404 27.92 180.164 28.088 180.868 28.424C181.572 28.76 182.14 29.168 182.572 29.648V29.384C182.572 28.968 182.708 28.624 182.98 28.352C183.252 28.064 183.596 27.92 184.012 27.92ZM179.044 38.6C180.116 38.6 180.988 38.224 181.66 37.472C182.348 36.704 182.692 35.744 182.692 34.592C182.692 33.44 182.348 32.48 181.66 31.712C180.988 30.944 180.116 30.56 179.044 30.56C177.972 30.56 177.1 30.944 176.428 31.712C175.756 32.48 175.42 33.44 175.42 34.592C175.42 35.744 175.756 36.704 176.428 37.472C177.1 38.224 177.972 38.6 179.044 38.6ZM195.432 27.92C197.064 27.92 198.192 28.408 198.816 29.384C199.44 30.344 199.752 31.68 199.752 33.392V39.536C199.752 39.952 199.616 40.304 199.344 40.592C199.072 40.864 198.728 41 198.312 41C197.896 41 197.552 40.864 197.28 40.592C197.008 40.304 196.872 39.952 196.872 39.536V33.392C196.872 32.512 196.688 31.824 196.32 31.328C195.952 30.816 195.32 30.56 194.424 30.56C193.496 30.56 192.768 30.832 192.24 31.376C191.712 31.904 191.448 32.576 191.448 33.392V39.536C191.448 39.952 191.312 40.304 191.04 40.592C190.768 40.864 190.424 41 190.008 41C189.592 41 189.248 40.864 188.976 40.592C188.704 40.304 188.568 39.952 188.568 39.536V29.624C188.568 29.208 188.704 28.864 188.976 28.592C189.248 28.304 189.592 28.16 190.008 28.16C190.424 28.16 190.768 28.304 191.04 28.592C191.312 28.864 191.448 29.208 191.448 29.624V30.032C191.88 29.456 192.44 28.96 193.128 28.544C193.832 28.128 194.6 27.92 195.432 27.92Z" fill="#AD74CD"/>
</svg>
